<?xml version="1.0" standalone="no"?>
<!DOCTYPE svg PUBLIC "-//W3C//DTD SVG 20010904//EN"
 "http://www.w3.org/TR/2001/REC-SVG-20010904/DTD/svg10.dtd">
<svg version="1.0" xmlns="http://www.w3.org/2000/svg"
 width="1280.000000pt" height="1280.000000pt" viewBox="0 0 1280.000000 1280.000000"
 preserveAspectRatio="xMidYMid meet">
<metadata>
Created by potrace 1.13, written by Peter Selinger 2001-2015
</metadata>
<g transform="translate(0.000000,1280.000000) scale(0.100000,-0.100000)"
fill="#000000" stroke="none">
<path d="M8559 9680 c-123 -31 -381 -145 -484 -213 -127 -84 -145 -98 -145
-113 0 -27 34 -14 144 55 173 109 408 211 528 231 91 14 197 3 285 -30 26 -9
40 -26 66 -78 18 -37 39 -89 47 -117 17 -63 37 -95 56 -88 18 7 18 43 0 85 -8
18 -25 58 -38 88 -52 125 -59 133 -129 158 -72 26 -265 39 -330 22z"/>
<path d="M5860 9588 c-110 -30 -434 -162 -525 -213 -91 -51 -179 -154 -338
-394 -86 -129 -109 -173 -98 -184 15 -15 38 8 116 125 171 254 250 354 314
395 58 37 337 160 476 209 77 27 88 28 275 30 114 1 245 -5 315 -13 118 -14
274 -47 304 -64 44 -25 395 -150 408 -145 32 13 1 33 -123 79 -71 27 -148 58
-171 68 -24 10 -47 19 -53 19 -6 0 -18 4 -28 9 -18 11 -128 45 -175 55 -144
32 -610 48 -697 24z"/>
<path d="M8077 9000 c-43 -8 -112 -43 -229 -116 -89 -56 -241 -222 -287 -311
-11 -23 -30 -47 -40 -52 -34 -19 -31 -38 15 -87 24 -27 44 -54 44 -62 0 -7 7
-15 15 -18 8 -4 15 -10 15 -15 0 -10 8 -19 84 -98 89 -92 277 -170 409 -171
59 0 214 30 264 52 43 19 250 176 272 207 97 135 151 370 102 433 -12 14 -54
38 -101 57 -98 38 -218 96 -239 115 -9 7 -43 26 -76 41 -67 30 -164 40 -248
25z m223 -69 c110 -53 152 -85 167 -126 34 -94 37 -117 37 -275 1 -139 -2
-170 -17 -197 -9 -18 -16 -36 -15 -40 4 -21 -26 -65 -62 -92 -48 -35 -102 -54
-219 -77 -123 -24 -148 -15 -195 75 -73 138 -114 312 -102 429 7 65 53 205 82
250 9 13 44 37 77 53 54 25 71 29 132 26 46 -3 86 -11 115 -26z m-376 -59 c2
-4 -8 -38 -24 -76 -58 -136 -64 -246 -23 -406 23 -94 73 -209 100 -231 7 -6
13 -15 13 -20 0 -19 -41 -8 -121 33 -99 49 -194 140 -281 269 -30 45 -31 41
34 139 58 88 131 170 210 237 75 64 83 69 92 55z m654 -71 c31 -15 70 -31 85
-35 48 -11 62 -77 40 -186 -21 -102 -97 -239 -157 -285 -40 -31 -63 -26 -42 8
49 77 59 350 17 455 -19 47 -20 72 -5 72 2 0 30 -13 62 -29z"/>
<path d="M8181 8711 c-41 -41 -51 -68 -56 -151 -4 -63 -2 -99 11 -140 18 -62
56 -100 83 -83 30 18 72 116 83 194 14 94 0 142 -51 176 -41 28 -46 28 -70 4z
m43 -77 c9 -3 14 -10 11 -14 -3 -5 -1 -20 5 -34 6 -18 6 -35 -2 -53 -6 -16
-13 -48 -15 -73 -6 -63 -15 -76 -36 -55 -19 19 -23 60 -6 71 6 3 9 19 5 35 -7
34 4 129 15 129 4 0 14 -3 23 -6z"/>
<path d="M5725 8801 c-72 -18 -167 -81 -308 -204 -46 -41 -154 -178 -193 -244
-20 -36 -33 -40 -64 -21 -38 24 -37 -7 2 -66 19 -27 103 -119 180 -196 82 -82
177 -132 308 -161 199 -43 337 -20 495 84 99 66 155 135 218 274 29 65 38 99
43 166 10 122 6 131 -74 168 -37 17 -90 40 -119 50 -28 11 -69 32 -90 46 -64
44 -154 81 -235 97 -82 17 -115 18 -163 7z m283 -92 c82 -40 109 -70 123 -139
13 -59 13 -61 29 -165 14 -95 20 -112 31 -94 16 25 9 143 -12 228 -11 45 -18
85 -15 89 7 6 161 -64 189 -87 21 -18 22 -57 2 -153 -30 -144 -135 -312 -215
-346 -19 -8 -58 -30 -86 -48 -28 -19 -58 -34 -67 -34 -9 0 -42 -7 -74 -15 -84
-22 -164 -20 -197 6 -56 44 -91 128 -127 303 -32 161 -24 257 30 371 23 47 51
90 63 97 75 43 224 37 326 -13z m-408 -39 c0 -6 -7 -21 -15 -33 -26 -40 -56
-151 -57 -212 -3 -135 33 -299 88 -406 19 -36 34 -68 34 -72 0 -10 -101 28
-154 59 -81 45 -266 240 -266 279 0 4 17 31 38 59 21 28 55 74 74 101 46 64
222 235 243 235 8 0 15 -5 15 -10z"/>
<path d="M5841 8504 c-17 -14 -31 -34 -31 -44 0 -10 -5 -22 -11 -25 -24 -15
-48 -138 -29 -150 6 -3 10 -15 10 -27 0 -30 72 -98 103 -98 38 0 49 31 63 175
2 28 7 60 10 73 6 28 -21 88 -50 107 -27 20 -29 19 -65 -11z m56 -99 c7 -21
-16 -102 -34 -116 -9 -8 -12 -22 -8 -41 9 -37 -6 -36 -27 3 -20 33 -24 79 -8
79 6 0 10 7 10 16 0 19 38 74 51 74 5 0 12 -7 16 -15z"/>
<path d="M8970 8433 c1 -16 7 -55 15 -88 8 -33 22 -123 30 -200 8 -77 19 -162
25 -190 14 -73 22 -155 45 -480 10 -136 12 -418 9 -1160 -2 -539 -5 -996 -8
-1015 -2 -19 -7 -75 -10 -125 -4 -49 -8 -101 -11 -115 -2 -14 -7 -56 -10 -95
-3 -38 -8 -77 -10 -85 -5 -15 -6 -22 -25 -175 -6 -49 -13 -97 -15 -105 -2 -8
-7 -31 -9 -50 -3 -19 -10 -51 -15 -70 -5 -19 -23 -87 -40 -151 -16 -64 -41
-145 -54 -180 -14 -35 -33 -91 -42 -124 -10 -33 -26 -76 -36 -95 -10 -19 -25
-52 -35 -73 -25 -57 -124 -149 -269 -250 -190 -132 -258 -159 -510 -206 -321
-59 -452 -70 -574 -50 -129 22 -378 79 -521 119 -206 58 -260 75 -345 110
-216 91 -530 245 -738 364 -109 62 -454 309 -528 378 -14 13 -39 34 -55 47
-85 67 -264 253 -404 421 -25 29 -55 64 -67 76 -37 40 -149 186 -200 264 -42
62 -121 215 -153 295 -4 11 -15 36 -23 55 -8 19 -22 56 -31 82 -8 26 -24 66
-35 90 -11 24 -24 61 -31 83 -6 22 -15 49 -20 60 -18 43 -80 226 -114 335 -20
63 -49 160 -66 215 -17 54 -38 129 -46 165 -9 36 -26 103 -40 150 -46 156
-112 421 -124 495 -4 28 -15 77 -23 110 -19 72 -48 208 -78 365 -12 63 -25
120 -29 125 -4 6 -13 43 -20 83 -9 52 -19 76 -32 83 -14 7 -20 6 -24 -5 -5
-13 23 -149 46 -221 5 -16 14 -64 20 -105 6 -41 15 -86 20 -100 6 -14 12 -43
14 -64 3 -22 15 -80 27 -130 12 -50 39 -165 61 -256 52 -219 129 -513 173
-665 13 -44 31 -107 40 -140 10 -33 20 -67 23 -75 3 -8 6 -19 7 -25 0 -5 3
-14 7 -20 3 -5 11 -30 17 -55 7 -25 18 -61 26 -80 15 -39 14 -38 62 -170 19
-52 39 -111 44 -130 6 -19 15 -39 20 -44 5 -6 9 -17 9 -25 1 -9 9 -34 20 -56
11 -22 19 -47 20 -56 0 -8 4 -19 8 -25 5 -5 15 -25 22 -44 27 -73 143 -305
156 -313 8 -4 14 -14 14 -20 0 -7 12 -26 28 -43 15 -17 33 -42 41 -56 7 -14
28 -41 45 -59 18 -19 50 -56 71 -84 22 -27 54 -65 72 -85 53 -58 63 -70 63
-74 0 -12 242 -263 325 -336 49 -43 245 -200 275 -220 13 -8 35 -24 49 -36 14
-11 51 -37 81 -57 30 -20 82 -55 115 -78 33 -23 74 -48 90 -56 17 -7 48 -24
70 -37 138 -82 401 -213 585 -293 19 -9 53 -24 75 -34 76 -34 281 -98 445
-139 91 -22 191 -48 222 -56 95 -25 289 -54 359 -54 107 0 384 40 579 84 167
38 219 59 330 135 41 28 105 71 142 96 110 73 199 168 241 258 65 137 187 541
217 719 20 114 22 129 44 328 47 411 51 536 51 1505 0 989 -5 1119 -66 1605
-35 284 -54 388 -76 413 -23 24 -33 21 -33 -10z"/>
<path d="M7147 7637 c-2 -7 -1 -55 3 -107 4 -52 6 -144 5 -205 -2 -122 -9
-142 -73 -216 -20 -24 -55 -66 -77 -94 -22 -27 -42 -52 -45 -55 -4 -3 -61 -68
-127 -145 -66 -77 -140 -160 -164 -185 -64 -64 -113 -129 -130 -170 -13 -34
-18 -177 -8 -230 7 -35 39 -99 63 -125 27 -28 64 -47 148 -74 106 -33 316 -27
563 18 48 8 238 62 359 102 33 10 74 19 92 19 17 0 42 9 55 19 l24 19 -28 7
c-30 8 -136 -16 -297 -65 -196 -60 -346 -87 -542 -97 -104 -5 -128 -3 -205 18
-65 17 -97 32 -124 56 -63 57 -91 194 -60 301 13 47 22 58 267 335 198 223
318 373 340 425 13 31 15 70 11 234 -3 138 -8 202 -17 213 -15 18 -26 19 -33
2z"/>
<path d="M8574 5166 c-218 -108 -385 -143 -461 -96 -18 10 -44 38 -58 60 -28
44 -35 45 -98 13 -50 -25 -176 -63 -211 -63 -24 0 -49 12 -91 45 -32 24 -80
52 -107 61 -63 20 -80 14 -211 -79 -146 -102 -198 -122 -322 -121 -72 1 -121
8 -175 24 -83 25 -152 29 -175 10 -16 -13 -20 -55 -6 -64 4 -3 11 -18 14 -34
10 -50 90 -118 181 -153 124 -49 199 -60 396 -59 96 0 189 2 205 4 17 2 107 7
200 11 94 3 177 8 185 11 8 2 35 6 60 9 171 21 477 142 642 254 94 64 211 182
206 207 -6 34 -40 26 -174 -40z m84 -18 c-18 -27 -128 -116 -144 -117 -6 -1
-18 -8 -25 -17 -21 -25 -180 -100 -319 -151 -245 -88 -374 -104 -871 -107
l-284 -1 -85 29 c-99 33 -133 52 -176 98 -34 37 -59 91 -49 107 8 14 41 14 68
0 11 -7 68 -23 125 -36 91 -21 113 -23 176 -14 93 13 178 52 293 134 50 36
105 68 122 72 37 8 102 -20 148 -63 53 -50 84 -55 182 -31 48 11 95 27 106 34
11 7 34 15 51 19 28 6 35 3 60 -27 90 -105 268 -92 524 38 58 29 107 54 109
54 2 1 -3 -9 -11 -21z"/>
</g>
</svg>
