<?xml version="1.0" standalone="no"?>
<!DOCTYPE svg PUBLIC "-//W3C//DTD SVG 20010904//EN"
 "http://www.w3.org/TR/2001/REC-SVG-20010904/DTD/svg10.dtd">
<svg version="1.0" xmlns="http://www.w3.org/2000/svg"
 width="1392.000000pt" height="1328.000000pt" viewBox="0 0 1392.000000 1328.000000"
 preserveAspectRatio="xMidYMid meet">
<metadata>
Created by potrace 1.13, written by Peter Selinger 2001-2015
</metadata>
<g transform="translate(0.000000,1328.000000) scale(0.100000,-0.100000)"
fill="#000000" stroke="none">
<path d="M6195 12433 c-73 -4 -158 -21 -255 -50 -47 -14 -137 -38 -200 -53
-63 -16 -167 -42 -230 -60 -123 -34 -257 -66 -409 -99 -51 -12 -134 -37 -185
-58 -50 -20 -131 -51 -181 -69 -198 -71 -401 -170 -579 -283 -328 -208 -457
-276 -553 -291 -46 -8 -188 -50 -413 -122 -65 -21 -170 -68 -245 -110 -22 -13
-72 -41 -110 -62 -90 -51 -173 -116 -256 -203 -92 -95 -237 -292 -283 -383 -9
-19 -35 -62 -56 -95 -45 -68 -130 -235 -130 -253 0 -6 -12 -46 -26 -89 -14
-43 -28 -100 -29 -128 -8 -113 -16 -147 -50 -220 -13 -27 -25 -70 -26 -95 -2
-61 -18 -110 -35 -110 -24 0 -29 -1 -42 -12 -7 -6 -10 -18 -7 -27 4 -9 7 -594
6 -1301 0 -1069 2 -1303 14 -1395 20 -153 23 -183 30 -320 4 -66 9 -123 11
-127 3 -4 14 -63 25 -130 11 -68 26 -145 33 -173 19 -73 39 -158 41 -175 8
-74 71 -386 96 -475 11 -38 24 -89 29 -113 5 -24 12 -48 16 -53 6 -11 50 -187
64 -259 31 -164 81 -368 99 -405 5 -11 22 -49 37 -85 15 -36 36 -77 46 -92 10
-14 18 -29 18 -33 0 -11 132 -208 207 -307 40 -53 73 -99 73 -102 0 -10 214
-300 273 -371 33 -38 100 -113 151 -166 50 -53 116 -125 146 -159 80 -92 270
-299 310 -341 19 -19 49 -51 66 -70 53 -60 455 -440 541 -511 36 -31 110 -97
142 -128 190 -182 358 -320 453 -373 25 -14 65 -38 89 -53 30 -19 73 -32 148
-45 113 -19 325 -73 353 -89 10 -6 22 -10 27 -10 5 0 22 -5 38 -12 15 -7 33
-13 38 -13 6 -1 17 -5 25 -8 16 -6 190 -60 334 -103 49 -15 101 -33 115 -40
14 -8 33 -14 41 -14 9 0 20 -4 25 -9 6 -4 39 -16 75 -25 36 -9 77 -22 91 -27
15 -6 37 -12 50 -14 13 -3 49 -9 79 -15 30 -6 80 -13 110 -16 30 -3 84 -12
120 -20 53 -12 155 -15 555 -14 270 1 497 2 505 2 65 1 233 32 288 54 180 70
436 219 601 349 36 27 75 57 87 65 46 31 291 220 339 262 27 23 95 86 150 139
196 187 441 405 585 520 36 28 88 71 115 94 28 24 78 65 113 92 156 121 260
213 429 381 206 203 227 222 257 222 46 0 49 9 48 159 0 78 3 141 7 141 4 0
14 12 21 28 8 15 24 41 35 57 19 27 106 165 130 207 6 9 31 48 56 85 25 37 71
106 101 153 30 47 84 130 120 185 76 117 128 203 128 211 0 3 23 38 51 77 27
40 65 97 83 127 131 215 194 320 214 355 13 22 44 72 68 111 24 40 105 195
180 345 75 151 141 283 147 294 14 26 57 115 90 185 83 178 108 233 137 300
18 41 45 102 60 135 15 33 40 91 55 129 15 38 31 77 35 85 4 9 15 34 23 56 8
22 26 69 40 105 14 36 33 92 43 125 25 91 46 138 68 156 18 16 19 30 20 305 1
270 -1 295 -22 379 -13 50 -28 119 -34 155 -9 54 -42 189 -87 355 -4 17 -15
46 -23 65 -27 61 -52 134 -59 175 -21 117 -46 192 -98 300 -32 66 -70 145 -84
175 -15 30 -39 75 -53 100 -15 25 -38 72 -51 105 -46 115 -71 160 -125 230
-30 39 -65 89 -78 112 -13 24 -31 45 -41 48 -23 8 -189 208 -189 229 0 16 -65
98 -97 122 -42 31 -74 57 -248 202 -66 56 -136 114 -155 130 -152 126 -465
340 -690 469 -52 31 -106 63 -120 73 -14 10 -52 32 -85 50 -269 147 -411 222
-610 319 -126 62 -284 139 -350 172 -66 32 -140 63 -165 69 -53 13 -227 72
-320 108 -36 14 -108 53 -160 87 -283 183 -514 284 -809 355 -68 17 -167 44
-220 60 -53 17 -154 39 -226 50 -71 11 -193 31 -270 45 -132 25 -161 26 -495
28 -195 1 -377 1 -405 0z m795 -88 c52 -8 131 -22 175 -31 44 -8 136 -24 205
-34 69 -10 166 -30 215 -44 50 -15 153 -42 230 -62 164 -42 233 -63 241 -75 3
-5 12 -9 20 -9 22 0 271 -119 334 -159 30 -20 64 -41 75 -47 11 -6 65 -38 120
-71 55 -32 147 -76 205 -97 58 -21 113 -42 122 -47 10 -5 24 -9 32 -9 41 0
213 -68 321 -127 50 -27 64 -33 81 -33 8 0 46 -17 82 -38 59 -34 189 -98 262
-131 14 -6 61 -31 105 -56 44 -24 114 -61 155 -81 41 -20 82 -42 90 -49 8 -7
40 -26 70 -42 30 -17 96 -54 145 -84 50 -29 113 -66 140 -82 138 -80 391 -243
446 -288 14 -11 37 -28 51 -37 14 -9 70 -53 124 -97 93 -74 125 -101 215 -179
20 -17 83 -69 139 -116 87 -72 190 -183 190 -205 0 -3 5 -11 10 -18 6 -7 35
-43 66 -82 31 -38 75 -90 98 -115 23 -25 57 -67 75 -95 19 -27 39 -54 45 -60
19 -17 63 -89 76 -125 7 -19 17 -39 22 -44 4 -6 8 -16 8 -24 0 -19 29 -81 55
-117 41 -58 184 -361 204 -430 27 -96 74 -248 101 -320 44 -124 130 -441 130
-483 0 -13 5 -33 12 -45 6 -12 13 -33 14 -47 2 -14 7 -56 12 -95 5 -38 7 -158
6 -265 -3 -200 -3 -197 -50 -307 -8 -17 -14 -37 -14 -45 0 -8 -3 -18 -6 -21
-7 -7 -37 -87 -55 -147 -6 -19 -15 -39 -19 -45 -4 -5 -8 -22 -8 -38 0 -15 -10
-44 -23 -65 -13 -20 -35 -71 -48 -112 -14 -41 -32 -86 -41 -100 -9 -14 -24
-45 -34 -70 -17 -42 -22 -54 -45 -97 -22 -42 -45 -99 -43 -105 1 -4 -7 -22
-17 -40 -40 -70 -107 -211 -137 -288 -10 -25 -28 -61 -40 -80 -13 -19 -30 -55
-40 -80 -10 -25 -25 -56 -34 -70 -9 -14 -27 -50 -40 -80 -13 -30 -33 -68 -45
-85 -12 -16 -29 -49 -38 -73 -9 -23 -27 -59 -40 -80 -13 -20 -33 -58 -45 -85
-12 -26 -38 -69 -57 -96 -19 -27 -35 -52 -35 -57 0 -5 -15 -31 -33 -59 -68
-103 -92 -141 -107 -170 -8 -16 -49 -82 -91 -145 -130 -197 -169 -259 -169
-271 0 -6 -13 -28 -28 -48 -35 -44 -132 -189 -132 -197 0 -2 -28 -46 -63 -97
-35 -51 -71 -108 -80 -128 -9 -20 -28 -47 -42 -60 -13 -13 -25 -28 -25 -33 0
-5 -11 -24 -25 -42 -14 -18 -25 -36 -25 -40 0 -4 -11 -22 -25 -40 -14 -18 -25
-36 -25 -39 0 -3 -11 -21 -25 -39 -14 -18 -25 -36 -25 -40 0 -3 -12 -25 -27
-48 -26 -38 -28 -50 -28 -137 -1 -95 -19 -161 -46 -161 -5 0 -96 -84 -202
-188 -228 -222 -252 -243 -562 -487 -306 -241 -343 -273 -714 -629 -243 -233
-719 -585 -940 -696 -295 -147 -312 -150 -931 -157 -424 -4 -483 -3 -550 12
-41 10 -110 21 -153 26 -110 12 -223 40 -410 103 -89 29 -216 70 -282 91 -66
20 -214 68 -330 105 -253 83 -271 88 -376 101 -90 11 -124 25 -249 107 -117
75 -162 113 -381 314 -58 53 -122 110 -142 127 -59 46 -331 307 -528 506 -246
247 -260 263 -389 410 -63 72 -149 166 -191 210 -43 44 -105 114 -139 155 -34
41 -67 80 -73 85 -7 6 -30 36 -52 69 -150 220 -227 329 -263 371 -9 11 -21 28
-27 37 -5 9 -37 57 -70 105 -102 151 -196 361 -230 518 -31 144 -127 538 -150
620 -13 44 -35 136 -50 205 -14 69 -30 146 -36 172 -6 26 -14 71 -19 100 -4
29 -22 117 -38 195 -34 157 -48 254 -57 388 -8 128 -12 168 -26 275 -10 72
-13 358 -12 1200 0 1002 2 1109 17 1144 11 28 18 84 22 195 5 117 10 166 24
196 10 24 18 67 18 109 1 38 6 74 12 81 19 23 32 72 61 235 6 36 22 96 35 134
13 38 24 79 24 91 0 12 7 30 15 41 8 10 15 26 15 34 0 8 9 26 20 40 11 14 20
31 20 39 0 8 10 28 23 45 13 17 36 54 51 81 90 159 230 334 382 476 116 108
365 252 521 299 79 24 159 51 223 75 25 10 83 25 130 35 93 20 244 82 324 134
113 72 296 183 426 258 76 44 342 160 545 238 103 39 148 52 400 115 55 13
159 40 230 60 72 19 139 37 150 39 53 9 200 48 285 75 83 26 152 39 290 55 88
10 669 -4 760 -19z"/>
<path d="M9465 8857 c-27 -13 -63 -27 -80 -31 -51 -12 -206 -77 -290 -122 -44
-24 -112 -52 -152 -63 -135 -37 -269 -134 -313 -228 -24 -51 -26 -81 -4 -90
26 -10 64 14 64 40 0 28 99 121 163 153 23 11 51 25 62 32 11 6 46 20 79 32
32 11 106 45 165 74 58 30 144 68 191 86 47 17 108 40 137 51 58 23 67 20 108
-29 18 -22 35 -32 53 -32 44 1 122 -12 128 -21 3 -5 17 -9 31 -9 31 0 108 -43
117 -65 8 -21 -15 -28 -66 -21 -111 17 -135 17 -186 5 -52 -12 -92 -45 -92
-75 0 -7 -8 -32 -18 -56 -15 -33 -17 -50 -9 -72 7 -21 6 -44 -2 -78 -14 -54
-10 -63 77 -156 42 -46 48 -57 35 -65 -5 -3 -118 -8 -253 -12 l-245 -7 -47 32
c-51 34 -62 62 -67 172 -2 69 11 98 44 98 29 0 33 21 10 44 -20 19 -89 41
-108 33 -28 -11 -32 -240 -6 -290 8 -13 28 -52 44 -86 l30 -62 235 6 c428 12
558 8 590 -21 8 -7 47 -27 85 -44 39 -18 81 -37 94 -43 36 -18 356 -12 424 8
79 23 179 114 225 205 19 38 20 146 2 164 -8 9 -80 38 -160 66 -210 74 -442
191 -495 250 -32 36 -149 109 -186 116 -76 15 -187 58 -241 95 -68 46 -101 49
-173 16z m603 -267 c57 -47 75 -70 54 -70 -4 0 -13 5 -19 11 -15 15 -46 33
-105 61 -53 26 -63 48 -20 48 18 0 48 -17 90 -50z m-183 -21 c4 -6 19 -7 35
-4 42 9 101 -10 154 -52 51 -39 50 -35 30 -118 -7 -33 -70 -125 -85 -125 -5 0
-9 15 -9 33 -1 61 -25 123 -65 170 -36 41 -46 48 -80 48 -71 2 -81 -3 -34 -16
64 -17 72 -23 65 -51 -9 -34 11 -69 29 -54 21 17 35 3 35 -34 0 -17 5 -37 11
-43 16 -16 3 -43 -21 -43 -15 0 -20 7 -20 29 0 35 -26 62 -36 37 -3 -9 -3 -28
0 -42 5 -18 2 -32 -10 -45 -17 -18 -15 -19 39 -19 43 0 57 -4 57 -14 0 -8 -14
-17 -32 -21 -49 -9 -88 -26 -88 -37 0 -13 97 0 130 17 51 26 160 164 160 203
0 10 7 27 15 39 13 19 13 22 0 27 -17 6 -21 36 -5 36 6 0 21 -11 34 -25 13
-14 27 -25 32 -25 5 0 34 -13 64 -28 63 -32 167 -72 255 -97 71 -21 132 -52
140 -73 16 -41 -56 -160 -121 -202 -83 -52 -153 -64 -317 -53 -133 8 -149 11
-210 41 -37 18 -83 49 -104 68 -37 35 -84 47 -114 29 -7 -5 -24 -9 -36 -8 -13
1 -32 1 -43 2 -11 1 -24 11 -29 24 -10 26 -45 67 -56 67 -5 0 -17 7 -27 17
-19 17 -25 53 -9 53 5 0 12 16 16 36 4 26 2 41 -10 54 -26 28 -31 111 -9 159
15 34 23 41 46 41 28 0 28 0 9 -19 -17 -17 -18 -26 -10 -53 5 -18 9 -51 10
-73 l1 -40 15 50 c19 68 34 95 50 95 7 0 18 11 23 25 9 22 15 25 64 25 30 0
58 -5 61 -11z"/>
<path d="M4300 8633 c-60 -9 -150 -50 -249 -112 -58 -36 -124 -75 -146 -85
-22 -11 -54 -30 -71 -43 -17 -12 -38 -23 -47 -23 -9 0 -19 -4 -22 -10 -3 -5
-23 -10 -43 -10 -20 0 -120 -26 -222 -59 -102 -33 -227 -72 -279 -88 -100 -30
-110 -37 -197 -139 -44 -51 -48 -60 -48 -109 -1 -47 3 -59 26 -82 l28 -27 383
-1 c270 0 388 -3 398 -11 22 -18 91 -23 119 -9 14 7 56 15 94 19 74 6 120 -7
318 -88 76 -31 99 -36 172 -37 70 -1 94 3 133 23 60 29 99 55 143 96 19 17 44
32 55 32 48 1 49 4 47 234 -2 195 -4 220 -22 254 -11 20 -20 41 -20 47 -1 5
-35 39 -77 75 -42 36 -99 86 -126 113 l-50 47 -136 -1 c-75 -1 -147 -4 -161
-6z m261 -85 c77 -33 200 -141 239 -212 23 -43 39 -156 38 -271 -1 -115 -53
-183 -198 -261 -26 -13 -57 -18 -115 -18 -74 -1 -86 2 -167 42 -47 23 -97 42
-110 42 -12 0 -48 13 -78 29 -47 24 -55 33 -58 59 -4 42 23 82 57 82 21 0 33
-12 64 -60 37 -58 56 -73 58 -47 5 41 -6 127 -28 227 -14 63 -29 133 -33 155
-17 93 -37 115 -105 115 -53 0 -93 19 -81 38 4 7 14 12 21 12 8 0 44 13 80 30
62 29 117 45 180 54 58 8 200 -2 236 -16z m-537 -204 c26 -10 19 -21 -34 -50
-27 -15 -52 -34 -55 -43 -9 -25 -64 -64 -80 -57 -34 13 -5 76 36 76 18 0 25
11 13 22 -3 4 -19 2 -35 -2 -19 -6 -29 -5 -29 2 0 6 -8 7 -17 3 -10 -3 -54 -9
-98 -11 l-80 -5 24 21 c13 11 36 20 52 20 16 0 49 5 73 12 36 9 53 9 86 -2 36
-12 43 -12 58 3 16 17 57 22 86 11z m120 -58 c10 -16 16 -49 17 -92 1 -60 -1
-69 -22 -85 -43 -33 -207 -21 -251 18 -17 15 -13 20 46 78 42 40 83 69 118 83
68 27 73 27 92 -2z m-329 -37 c6 -19 1 -33 -13 -35 -25 -3 -42 -19 -42 -39 0
-13 -4 -27 -10 -30 -5 -3 -10 -17 -10 -31 0 -13 -3 -24 -7 -24 -11 0 -63 67
-63 80 0 24 35 62 74 80 53 25 63 25 71 -1z m-155 -12 c0 -7 -9 -20 -20 -30
-35 -29 -21 -87 21 -87 33 0 49 -39 49 -122 0 -48 -4 -80 -12 -84 -6 -4 -150
-8 -320 -9 -289 -2 -309 -1 -318 16 -23 41 -12 72 43 122 59 56 139 97 200
104 49 5 75 14 176 61 54 24 85 33 113 30 21 -2 38 0 38 4 0 5 7 8 15 8 8 0
15 -6 15 -13z m171 -92 c9 -34 17 -47 35 -51 13 -3 24 -10 24 -16 0 -5 -8 -7
-18 -3 -11 3 -29 -3 -45 -15 -31 -25 -34 -25 -47 0 -8 15 -8 36 0 75 14 69 35
73 51 10z m178 -90 c43 0 44 -1 48 -36 3 -31 -1 -38 -24 -49 -73 -35 -159 -40
-178 -10 -14 23 -8 73 11 84 24 14 76 24 89 17 5 -3 29 -5 54 -6z m-190 -96
c17 -35 18 -43 6 -55 -18 -18 -29 -18 -48 4 -26 29 -31 68 -10 81 28 16 31 14
52 -30z"/>
<path d="M6512 7477 c-7 -8 -11 -109 -12 -292 -1 -262 -3 -330 -15 -380 -2
-11 -7 -47 -10 -80 -3 -33 -10 -100 -15 -150 -6 -49 -12 -117 -15 -149 -3 -33
-8 -62 -10 -66 -3 -4 -7 -43 -10 -86 -3 -44 -8 -90 -11 -104 -13 -61 -34 -273
-34 -351 0 -51 -6 -104 -15 -129 -10 -28 -16 -90 -17 -184 l-3 -141 39 3 c24
2 60 -6 95 -20 51 -21 72 -23 236 -23 l180 0 54 38 c29 20 59 37 66 37 30 0
35 29 36 197 1 94 -2 176 -5 182 -4 6 -26 11 -49 11 -23 0 -74 8 -112 19 -101
27 -168 34 -200 19 -23 -10 -26 -16 -21 -41 3 -16 6 -44 6 -62 0 -24 5 -34 19
-38 27 -7 39 4 43 38 3 27 7 30 43 33 44 4 135 -14 176 -34 41 -21 49 -38 49
-105 -1 -35 -1 -75 0 -88 0 -38 -38 -89 -88 -119 -45 -26 -52 -27 -192 -27
-124 0 -155 4 -219 24 -65 21 -75 27 -87 58 -8 19 -13 42 -10 51 3 9 7 30 10
45 3 16 10 35 17 43 15 18 18 51 18 219 0 72 7 177 15 235 14 96 19 146 32
330 2 36 9 99 14 140 6 41 14 108 20 148 5 41 14 90 19 110 20 78 23 146 22
406 0 268 -4 296 -36 296 -7 0 -17 -6 -23 -13z"/>
<path d="M8762 4670 c-31 -5 -66 -18 -85 -33 -19 -14 -103 -49 -188 -78 -104
-35 -235 -91 -404 -174 -137 -68 -288 -139 -335 -159 -47 -20 -98 -50 -113
-66 -38 -40 -82 -50 -219 -50 -168 0 -369 51 -480 121 -25 16 -93 43 -150 60
l-103 30 -257 -5 -258 -4 -47 -28 c-27 -15 -66 -43 -88 -61 -49 -41 -254 -147
-394 -202 -160 -64 -208 -73 -346 -70 l-120 4 -3 -36 c-3 -41 19 -69 41 -50 8
6 53 10 108 10 115 0 182 16 354 86 195 80 314 138 380 188 122 91 146 96 442
97 147 1 217 -5 238 -20 6 -4 31 -12 58 -19 26 -6 72 -27 102 -46 30 -19 63
-35 75 -35 12 0 40 -9 62 -20 23 -11 89 -31 147 -46 86 -20 129 -25 231 -24
158 0 206 13 285 76 22 17 51 35 65 39 14 4 54 22 90 41 238 120 540 257 625
284 55 16 142 51 192 76 51 25 101 44 110 42 22 -4 21 -46 -2 -213 -20 -148
-21 -154 -42 -200 -9 -22 -18 -51 -20 -65 -2 -14 -7 -38 -11 -55 l-9 -30 -151
0 c-143 0 -153 -1 -173 -22 -19 -18 -20 -24 -9 -37 13 -17 45 -21 54 -8 2 4
61 7 130 6 70 -1 126 2 126 7 0 5 5 9 11 9 11 0 10 -32 -5 -131 -6 -45 -30
-61 -116 -76 -47 -8 -115 -28 -152 -44 -116 -51 -118 -48 -118 141 0 81 4 150
10 156 5 5 6 22 2 39 -8 27 -13 30 -48 30 -37 0 -39 -1 -37 -30 12 -187 13
-354 4 -377 -10 -27 -13 -28 -81 -28 -39 0 -148 -14 -243 -31 -94 -17 -179
-32 -187 -33 -13 -1 -15 25 -17 168 -2 135 -6 173 -18 185 -13 13 -17 12 -40
-9 -18 -17 -23 -30 -19 -44 4 -12 8 -43 10 -70 1 -27 5 -95 9 -152 9 -123 20
-112 -155 -144 -63 -11 -128 -25 -144 -30 -18 -6 -33 -7 -39 -1 -5 5 -8 96 -8
204 1 164 -2 197 -15 208 -12 10 -19 9 -36 -8 -19 -20 -20 -31 -19 -192 1 -95
6 -183 11 -196 12 -31 -4 -44 -119 -95 -146 -64 -229 -80 -412 -80 -130 0
-158 -3 -163 -15 -3 -8 -13 -15 -21 -15 -13 0 -15 5 -9 23 13 37 16 84 18 269
1 98 5 180 9 184 12 12 -14 44 -36 44 -40 0 -46 -16 -41 -114 6 -117 13 -226
20 -300 6 -61 -9 -116 -31 -116 -7 0 -25 30 -41 68 -27 63 -79 166 -136 274
-29 52 -50 105 -53 128 -4 31 -29 66 -92 129 -59 59 -67 63 -91 55 -49 -17
-40 -47 34 -124 71 -73 74 -77 148 -230 42 -86 112 -197 153 -242 19 -22 10
-56 -11 -39 -34 28 -301 81 -491 97 -95 8 -124 19 -234 92 -92 60 -248 209
-269 255 -12 28 -47 48 -70 40 -21 -9 -24 -49 -7 -99 15 -45 28 -64 78 -112 9
-9 17 -22 17 -29 0 -7 3 -13 8 -13 20 0 32 -63 31 -170 0 -109 1 -116 23 -132
13 -9 34 -26 48 -36 29 -22 91 -42 205 -67 103 -22 257 -68 315 -93 25 -11 61
-23 80 -27 19 -4 40 -11 45 -15 6 -4 57 -19 115 -34 58 -15 114 -31 125 -36
32 -13 101 -30 120 -30 10 0 47 -14 83 -31 51 -24 76 -30 121 -28 102 3 271
-46 359 -105 26 -17 84 -48 129 -69 70 -33 94 -39 160 -41 96 -3 145 7 203 42
25 15 88 47 140 71 195 89 217 100 300 162 47 34 176 153 288 263 111 111 215
206 231 213 28 12 75 76 146 197 40 68 51 104 64 206 31 242 42 304 67 371 41
116 63 244 63 372 0 48 2 91 6 96 5 10 -21 42 -33 40 -4 -1 -31 -5 -60 -9z
m-91 -928 c-6 -11 -11 -28 -11 -36 0 -39 -108 -188 -190 -263 -30 -26 -135
-127 -234 -223 -100 -97 -209 -198 -242 -226 -65 -54 -195 -124 -409 -220
-115 -52 -139 -59 -207 -62 -76 -4 -77 -4 -175 49 -54 29 -114 65 -133 80 -36
28 -53 34 -295 84 -144 30 -183 48 -202 94 -25 58 -62 245 -52 256 6 6 99 13
212 16 211 6 278 19 379 70 54 27 116 36 124 16 3 -8 1 -24 -5 -35 -6 -11 -11
-107 -12 -227 -1 -165 2 -209 12 -216 9 -5 21 -1 34 12 19 19 20 33 20 270 l0
251 25 14 c14 7 41 13 60 14 20 0 78 9 129 20 88 20 95 20 112 4 14 -12 19
-31 19 -64 0 -51 16 -74 47 -68 12 2 17 11 16 28 -9 90 -7 132 7 145 8 7 42
18 75 24 33 6 134 24 225 41 91 16 177 30 193 30 l27 0 0 -105 c0 -104 0 -106
26 -115 14 -6 29 -10 35 -10 5 0 7 45 6 103 -2 56 -2 109 0 117 6 25 63 58
138 80 159 46 202 61 220 74 25 18 40 5 26 -22z m-381 -77 c-15 -16 -27 -22
-33 -16 -14 14 10 41 36 41 20 0 20 -1 -3 -25z m-2778 -144 c13 -5 40 -26 61
-46 72 -67 195 -111 316 -114 36 -1 102 -10 149 -21 46 -11 92 -20 103 -20 49
0 201 -45 224 -66 14 -13 40 -35 60 -49 35 -27 57 -79 71 -166 11 -68 -2 -66
-496 91 -118 38 -246 76 -285 86 -187 48 -245 106 -245 249 0 67 3 71 42 56z
m943 -251 c10 -16 -3 -29 -24 -23 -30 8 -35 33 -6 33 13 0 27 -4 30 -10z"/>
</g>
</svg>
