<?xml version="1.0" standalone="no"?>
<!DOCTYPE svg PUBLIC "-//W3C//DTD SVG 20010904//EN"
 "http://www.w3.org/TR/2001/REC-SVG-20010904/DTD/svg10.dtd">
<svg version="1.0" xmlns="http://www.w3.org/2000/svg"
 width="1280.000000pt" height="1280.000000pt" viewBox="0 0 1280.000000 1280.000000"
 preserveAspectRatio="xMidYMid meet">
<metadata>
Created by potrace 1.13, written by Peter Selinger 2001-2015
</metadata>
<g transform="translate(0.000000,1280.000000) scale(0.100000,-0.100000)"
fill="#000000" stroke="none">
<path d="M7295 8871 c-88 -24 -396 -129 -495 -169 -388 -155 -418 -170 -390
-187 10 -6 45 5 145 45 256 101 372 146 420 160 22 6 49 15 60 20 11 4 47 17
80 28 236 79 297 88 425 58 41 -9 111 -26 155 -36 44 -10 103 -24 130 -30 28
-6 61 -21 75 -33 32 -28 150 -182 150 -196 0 -6 4 -11 9 -11 5 0 30 -31 55
-68 55 -84 82 -110 97 -95 9 9 -2 31 -37 83 -27 40 -53 79 -59 88 -18 31 -128
177 -154 205 -32 35 -84 62 -136 71 -22 4 -102 23 -177 42 -175 44 -260 50
-353 25z"/>
<path d="M4575 8641 c-63 -19 -211 -71 -330 -116 -38 -14 -78 -34 -87 -43 -15
-16 -118 -213 -118 -227 0 -3 -13 -33 -30 -66 -46 -93 -58 -159 -29 -159 6 0
79 142 79 156 0 5 74 165 98 212 9 18 26 42 38 53 23 22 359 145 435 159 105
20 467 -16 659 -65 62 -16 162 -48 205 -65 48 -20 126 -41 140 -38 88 18 -321
156 -555 187 -263 35 -416 39 -505 12z"/>
<path d="M7509 8080 c-126 -20 -428 -101 -525 -141 -63 -25 -91 -44 -137 -91
-61 -64 -104 -135 -90 -149 5 -5 46 -5 93 0 47 5 137 12 200 16 247 13 286 16
325 27 22 5 87 16 145 24 151 19 162 21 223 44 70 26 122 64 176 128 l42 52
-25 23 c-49 46 -130 68 -256 72 -63 2 -140 0 -171 -5z m311 -53 c77 -28 87
-39 67 -71 -47 -71 -253 -155 -389 -158 -25 0 -51 3 -57 6 -18 11 -13 33 9 39
24 6 41 46 33 78 -10 39 -34 69 -54 69 -23 0 -26 -32 -4 -50 28 -23 16 -90
-16 -90 -23 0 -36 43 -21 75 6 13 8 32 6 42 -10 37 27 65 97 73 129 14 270 9
329 -13z m-464 -40 c2 -7 1 -31 -4 -52 l-8 -40 -28 42 c-15 23 -25 47 -21 52
9 15 55 14 61 -2z m-89 -19 c6 -7 13 -25 17 -40 9 -38 50 -83 96 -104 57 -27
39 -41 -65 -53 -72 -8 -299 -22 -375 -23 -8 0 -35 -4 -59 -10 -75 -15 -78 -5
-20 62 64 73 92 91 216 130 54 18 109 36 123 40 37 12 56 12 67 -2z"/>
<path d="M8645 7873 c-3 -10 -8 -79 -10 -153 -2 -74 -6 -184 -10 -245 -3 -60
-8 -155 -11 -210 -11 -216 -17 -286 -40 -445 -9 -58 -18 -121 -20 -140 -7 -68
-40 -314 -49 -374 -2 -15 -7 -37 -11 -48 -3 -11 -7 -30 -9 -41 -2 -12 -10 -67
-19 -122 -8 -55 -17 -124 -20 -153 -3 -29 -15 -97 -27 -150 -11 -53 -29 -141
-39 -194 -24 -119 -49 -217 -61 -241 -5 -10 -7 -22 -4 -27 3 -5 1 -11 -4 -14
-5 -3 -12 -30 -16 -59 -7 -52 -47 -187 -65 -219 -6 -10 -10 -25 -10 -33 0 -9
-22 -73 -50 -142 -27 -69 -50 -129 -50 -134 0 -4 -15 -40 -34 -81 -18 -40 -37
-84 -41 -98 -4 -14 -15 -36 -25 -50 -10 -14 -28 -50 -41 -80 -12 -30 -32 -68
-43 -84 -11 -16 -29 -47 -40 -68 -69 -126 -287 -418 -373 -498 -103 -96 -278
-247 -344 -297 -108 -82 -136 -91 -509 -160 -192 -35 -615 -17 -838 37 -92 22
-127 40 -282 144 -208 140 -340 255 -476 413 -23 26 -65 75 -94 108 -29 33
-57 70 -63 82 -6 13 -14 23 -19 23 -4 0 -8 5 -8 11 0 6 -10 25 -22 42 -13 18
-28 41 -34 52 -6 11 -27 47 -46 80 -35 61 -141 274 -198 400 -18 39 -45 97
-60 130 -16 33 -40 87 -55 120 -14 33 -30 68 -35 77 -6 10 -10 22 -10 28 0 5
-11 33 -24 62 -14 29 -39 89 -56 133 -18 44 -36 89 -41 100 -4 11 -18 45 -29
75 -11 30 -25 64 -30 75 -32 72 -198 558 -235 690 -9 33 -21 69 -25 80 -32 77
-167 706 -199 930 -29 199 -47 275 -68 282 -19 7 -21 -33 -7 -113 8 -44 16
-99 19 -124 3 -25 7 -56 10 -70 3 -14 7 -38 9 -55 14 -112 92 -488 130 -634
69 -260 115 -415 151 -511 15 -40 40 -114 60 -180 7 -25 26 -76 40 -115 15
-38 34 -88 41 -110 8 -22 18 -49 23 -60 5 -11 18 -47 31 -80 12 -33 25 -69 30
-80 35 -89 75 -185 86 -210 7 -16 22 -56 34 -87 12 -32 26 -60 31 -63 5 -4 9
-13 9 -21 0 -8 20 -57 45 -107 25 -51 45 -97 45 -101 0 -14 249 -512 276 -551
13 -20 24 -38 24 -41 0 -3 11 -20 25 -38 14 -18 25 -36 25 -39 0 -4 8 -15 18
-25 9 -11 44 -52 77 -92 33 -41 70 -83 83 -95 12 -12 22 -25 22 -28 0 -10 166
-176 220 -218 87 -69 131 -103 155 -119 13 -8 57 -39 100 -68 42 -28 79 -52
83 -52 3 0 15 -8 26 -18 39 -35 144 -72 242 -87 315 -48 577 -58 739 -30 50 9
113 20 140 25 349 61 334 53 661 333 209 178 250 227 471 562 123 186 263 494
369 810 90 271 181 664 230 995 37 254 44 297 54 335 5 22 23 148 40 280 16
132 34 269 40 305 10 71 29 246 28 270 0 8 4 74 8 145 13 195 12 557 -2 562
-6 2 -15 -4 -19 -14z"/>
<path d="M5105 7864 c-49 -7 -126 -20 -170 -29 -44 -9 -110 -20 -147 -25 -77
-12 -213 -58 -280 -95 -59 -33 -111 -86 -133 -136 -15 -33 -16 -41 -4 -55 11
-14 27 -15 99 -10 47 3 146 9 220 11 74 3 155 8 180 11 25 3 61 8 80 10 19 2
53 6 75 9 22 4 65 8 95 11 30 3 64 9 75 13 11 5 50 20 88 35 91 35 144 70 168
110 10 18 31 38 47 45 l27 13 -33 27 c-23 20 -60 34 -127 49 -105 25 -132 25
-260 6z m269 -47 c57 -15 76 -36 55 -61 -36 -43 -59 -60 -125 -91 -86 -41
-166 -62 -261 -68 -73 -4 -83 -1 -61 21 9 9 7 13 -8 18 -27 10 -64 45 -64 61
0 7 -4 13 -10 13 -5 0 -10 8 -10 18 0 10 -5 23 -11 29 -12 12 14 43 36 43 21
0 26 -16 15 -44 -12 -33 6 -69 32 -60 9 3 26 -1 37 -8 51 -31 66 58 18 102
-11 11 -19 20 -16 21 2 0 49 6 104 13 117 13 201 11 269 -7z m-545 -46 c10 -6
23 -29 31 -53 16 -52 56 -108 76 -108 7 0 14 -7 14 -15 0 -19 -31 -23 -220
-30 -85 -3 -189 -8 -231 -12 -88 -7 -102 3 -67 45 57 70 150 119 308 163 36
10 66 18 68 18 2 1 11 -3 21 -8z"/>
<path d="M5625 7020 c-4 -6 8 -39 26 -73 46 -90 50 -96 92 -154 20 -29 37 -55
37 -59 0 -4 18 -31 40 -60 22 -29 40 -56 40 -59 0 -3 18 -30 40 -60 22 -30 40
-58 40 -63 0 -5 6 -15 13 -21 8 -6 29 -41 48 -78 19 -38 37 -69 41 -71 5 -2 8
-10 8 -19 0 -8 8 -27 19 -41 10 -15 22 -43 26 -62 4 -19 11 -40 15 -45 15 -18
37 -131 39 -199 3 -83 -20 -137 -79 -190 -64 -58 -120 -78 -227 -84 -66 -3
-93 -8 -93 -17 0 -19 24 -25 94 -25 148 0 300 87 335 192 26 78 16 220 -22
333 -35 101 -130 295 -149 303 -5 2 -8 9 -8 15 0 10 -134 213 -149 227 -12 11
-100 147 -123 190 -32 62 -79 130 -89 130 -4 0 -11 -5 -14 -10z"/>
<path d="M6215 5060 c-38 -10 -95 -29 -126 -43 -56 -26 -218 -122 -320 -190
-67 -44 -253 -133 -362 -172 -43 -15 -80 -32 -83 -37 -9 -15 15 -74 44 -105
40 -43 129 -97 197 -120 88 -30 317 -47 525 -40 96 3 192 8 213 12 62 9 151
47 372 158 224 112 293 135 525 173 58 10 109 22 115 26 18 16 -18 28 -85 28
-190 1 -244 17 -455 141 -146 86 -272 143 -372 168 -97 25 -99 25 -188 1z
m190 -44 c79 -21 206 -79 344 -158 160 -92 203 -111 274 -128 31 -7 57 -17 57
-21 0 -4 -26 -10 -57 -13 -99 -11 -185 -43 -415 -158 -122 -61 -236 -115 -252
-120 -36 -11 -285 -36 -319 -33 -12 2 -87 6 -167 10 -174 8 -238 17 -306 43
-110 41 -214 133 -181 160 6 6 52 24 101 41 112 39 240 102 347 173 134 88
164 106 250 149 133 67 223 82 324 55z"/>
</g>
</svg>
